<svg width="13" height="24" viewBox="0 0 13 24" fill="none" xmlns="http://www.w3.org/2000/svg">
<path d="M10.9298 1.09296L0.954469 11.3263C0.779268 11.506 0.681213 11.7471 0.681213 11.9981C0.681213 12.2491 0.779268 12.4902 0.954469 12.6699L10.9298 22.9071C11.0114 22.9909 11.109 23.0575 11.2168 23.103C11.3246 23.1485 11.4404 23.1719 11.5574 23.1719C11.6744 23.1719 11.7902 23.1485 11.8979 23.103C12.0057 23.0575 12.1033 22.9909 12.1849 22.9071C12.3528 22.7352 12.4468 22.5044 12.4468 22.2641C12.4468 22.0238 12.3528 21.7931 12.1849 21.6212L2.80439 11.9981L12.1849 2.37693C12.3522 2.20512 12.4459 1.97477 12.4459 1.73494C12.4459 1.49512 12.3522 1.26477 12.1849 1.09296C12.1033 1.00913 12.0057 0.942512 11.8979 0.897022C11.7902 0.851531 11.6744 0.828094 11.5574 0.828094C11.4404 0.828094 11.3246 0.851531 11.2168 0.897022C11.109 0.942512 11.0114 1.00913 10.9298 1.09296V1.09296Z" fill="black"/>
</svg>
