<svg width="17" height="31" viewBox="0 0 17 31" fill="none" xmlns="http://www.w3.org/2000/svg">
<path d="M0.357139 0.358549C0.128181 0.592955 0 0.907628 0 1.2353C0 1.56297 0.128181 1.87764 0.357139 2.11205L13.1488 15.2344L0.357139 28.3542C0.128181 28.5886 0 28.9033 0 29.2309C0 29.5586 0.128181 29.8733 0.357139 30.1077C0.468429 30.222 0.601489 30.3128 0.748466 30.3749C0.895443 30.4369 1.05336 30.4688 1.21289 30.4688C1.37242 30.4688 1.53034 30.4369 1.67731 30.3749C1.82429 30.3128 1.95735 30.222 2.06864 30.1077L15.6714 16.1505C15.9103 15.9054 16.044 15.5767 16.044 15.2344C16.044 14.8921 15.9103 14.5634 15.6714 14.3183L2.06864 0.361174C1.95735 0.246873 1.82429 0.156024 1.67731 0.0939918C1.53034 0.0319594 1.37242 0 1.21289 0C1.05336 0 0.895443 0.0319594 0.748466 0.0939918C0.601489 0.156024 0.468429 0.246873 0.357139 0.361174V0.358549Z" fill="black"/>
</svg>
