<svg width="32" height="32" viewBox="0 0 32 32" fill="none" xmlns="http://www.w3.org/2000/svg">
<path d="M16 3.2C19.3948 3.2 22.6505 4.54857 25.051 6.94903C27.4514 9.3495 28.8 12.6052 28.8 16C28.8 19.3948 27.4514 22.6505 25.051 25.051C22.6505 27.4514 19.3948 28.8 16 28.8C12.6052 28.8 9.34951 27.4514 6.94905 25.051C4.54858 22.6505 3.20001 19.3948 3.20001 16C3.20001 12.6052 4.54858 9.3495 6.94905 6.94903C9.34951 4.54857 12.6052 3.2 16 3.2ZM16 4.8C14.5292 4.8 13.0728 5.0897 11.714 5.65255C10.3551 6.2154 9.12043 7.04039 8.08042 8.0804C7.0404 9.12042 6.21541 10.3551 5.65256 11.7139C5.08971 13.0728 4.80001 14.5292 4.80001 16C4.80001 17.4708 5.08971 18.9272 5.65256 20.2861C6.21541 21.6449 7.0404 22.8796 8.08042 23.9196C9.12043 24.9596 10.3551 25.7846 11.714 26.3475C13.0728 26.9103 14.5292 27.2 16 27.2C18.9704 27.2 21.8192 26.02 23.9196 23.9196C26.02 21.8192 27.2 18.9704 27.2 16C27.2 13.0296 26.02 10.1808 23.9196 8.0804C21.8192 5.98 18.9704 4.8 16 4.8ZM11.448 19.8832C12.6045 21.0476 14.1631 21.7246 15.8035 21.7752C17.4438 21.8258 19.0412 21.2461 20.2672 20.1552L20.552 19.8832C20.6926 19.7404 20.8816 19.6555 21.0818 19.6453C21.2819 19.6352 21.4786 19.7006 21.6329 19.8285C21.7872 19.9564 21.8878 20.1376 21.9149 20.3361C21.942 20.5347 21.8936 20.7362 21.7792 20.9008L21.688 21.0128L21.6512 21.048C20.9043 21.7902 20.0185 22.378 19.0444 22.7778C18.0703 23.1776 17.0269 23.3816 15.974 23.3782C14.921 23.3748 13.8791 23.164 12.9076 22.7579C11.9361 22.3517 11.0541 21.7582 10.312 21.0112C10.1624 20.8606 10.0788 20.6567 10.0796 20.4444C10.0803 20.2321 10.1654 20.0288 10.316 19.8792C10.4667 19.7296 10.6705 19.646 10.8828 19.6468C11.0951 19.6475 11.2984 19.7326 11.448 19.8832ZM20 12C20.4244 12 20.8313 12.1686 21.1314 12.4686C21.4314 12.7687 21.6 13.1757 21.6 13.6C21.6 14.0243 21.4314 14.4313 21.1314 14.7314C20.8313 15.0314 20.4244 15.2 20 15.2C19.5757 15.2 19.1687 15.0314 18.8686 14.7314C18.5686 14.4313 18.4 14.0243 18.4 13.6C18.4 13.1757 18.5686 12.7687 18.8686 12.4686C19.1687 12.1686 19.5757 12 20 12ZM12 12C12.4244 12 12.8313 12.1686 13.1314 12.4686C13.4314 12.7687 13.6 13.1757 13.6 13.6C13.6 14.0243 13.4314 14.4313 13.1314 14.7314C12.8313 15.0314 12.4244 15.2 12 15.2C11.5757 15.2 11.1687 15.0314 10.8686 14.7314C10.5686 14.4313 10.4 14.0243 10.4 13.6C10.4 13.1757 10.5686 12.7687 10.8686 12.4686C11.1687 12.1686 11.5757 12 12 12Z" fill="black"/>
</svg>
