<svg width="27" height="26" viewBox="0 0 27 26" fill="none" xmlns="http://www.w3.org/2000/svg">
<path d="M14.6667 17.3333H20V13.3333L26.6667 19.3333L20 25.3333V21.3333H14.6667V17.3333ZM24 0H2.66667C1.95942 0 1.28115 0.280951 0.781048 0.781048C0.280951 1.28115 0 1.95942 0 2.66667V18.6667C0 19.3739 0.280951 20.0522 0.781048 20.5523C1.28115 21.0524 1.95942 21.3333 2.66667 21.3333H12V18.6667H2.66667V5.33333L13.3333 12L24 5.33333V13.3333H26.6667V2.66667C26.6667 1.95942 26.3857 1.28115 25.8856 0.781048C25.3855 0.280951 24.7072 0 24 0ZM13.3333 9.33333L2.66667 2.66667H24L13.3333 9.33333Z" fill="black"/>
</svg>
