<svg width="36" height="36" viewBox="0 0 36 36" fill="none" xmlns="http://www.w3.org/2000/svg">
<path d="M12 9C12 9.79565 11.6839 10.5587 11.1213 11.1213C10.5587 11.6839 9.79565 12 9 12C8.20435 12 7.44129 11.6839 6.87868 11.1213C6.31607 10.5587 6 9.79565 6 9C6 8.20435 6.31607 7.44129 6.87868 6.87868C7.44129 6.31607 8.20435 6 9 6C9.79565 6 10.5587 6.31607 11.1213 6.87868C11.6839 7.44129 12 8.20435 12 9V9ZM12 18C12 18.7956 11.6839 19.5587 11.1213 20.1213C10.5587 20.6839 9.79565 21 9 21C8.20435 21 7.44129 20.6839 6.87868 20.1213C6.31607 19.5587 6 18.7956 6 18C6 17.2044 6.31607 16.4413 6.87868 15.8787C7.44129 15.3161 8.20435 15 9 15C9.79565 15 10.5587 15.3161 11.1213 15.8787C11.6839 16.4413 12 17.2044 12 18ZM9 30C9.79565 30 10.5587 29.6839 11.1213 29.1213C11.6839 28.5587 12 27.7956 12 27C12 26.2044 11.6839 25.4413 11.1213 24.8787C10.5587 24.3161 9.79565 24 9 24C8.20435 24 7.44129 24.3161 6.87868 24.8787C6.31607 25.4413 6 26.2044 6 27C6 27.7956 6.31607 28.5587 6.87868 29.1213C7.44129 29.6839 8.20435 30 9 30V30ZM21 9C21 9.79565 20.6839 10.5587 20.1213 11.1213C19.5587 11.6839 18.7956 12 18 12C17.2044 12 16.4413 11.6839 15.8787 11.1213C15.3161 10.5587 15 9.79565 15 9C15 8.20435 15.3161 7.44129 15.8787 6.87868C16.4413 6.31607 17.2044 6 18 6C18.7956 6 19.5587 6.31607 20.1213 6.87868C20.6839 7.44129 21 8.20435 21 9V9ZM18 21C18.7956 21 19.5587 20.6839 20.1213 20.1213C20.6839 19.5587 21 18.7956 21 18C21 17.2044 20.6839 16.4413 20.1213 15.8787C19.5587 15.3161 18.7956 15 18 15C17.2044 15 16.4413 15.3161 15.8787 15.8787C15.3161 16.4413 15 17.2044 15 18C15 18.7956 15.3161 19.5587 15.8787 20.1213C16.4413 20.6839 17.2044 21 18 21ZM21 27C21 27.7956 20.6839 28.5587 20.1213 29.1213C19.5587 29.6839 18.7956 30 18 30C17.2044 30 16.4413 29.6839 15.8787 29.1213C15.3161 28.5587 15 27.7956 15 27C15 26.2044 15.3161 25.4413 15.8787 24.8787C16.4413 24.3161 17.2044 24 18 24C18.7956 24 19.5587 24.3161 20.1213 24.8787C20.6839 25.4413 21 26.2044 21 27V27ZM27 12C27.7956 12 28.5587 11.6839 29.1213 11.1213C29.6839 10.5587 30 9.79565 30 9C30 8.20435 29.6839 7.44129 29.1213 6.87868C28.5587 6.31607 27.7956 6 27 6C26.2044 6 25.4413 6.31607 24.8787 6.87868C24.3161 7.44129 24 8.20435 24 9C24 9.79565 24.3161 10.5587 24.8787 11.1213C25.4413 11.6839 26.2044 12 27 12V12ZM30 18C30 18.7956 29.6839 19.5587 29.1213 20.1213C28.5587 20.6839 27.7956 21 27 21C26.2044 21 25.4413 20.6839 24.8787 20.1213C24.3161 19.5587 24 18.7956 24 18C24 17.2044 24.3161 16.4413 24.8787 15.8787C25.4413 15.3161 26.2044 15 27 15C27.7956 15 28.5587 15.3161 29.1213 15.8787C29.6839 16.4413 30 17.2044 30 18ZM27 30C27.7956 30 28.5587 29.6839 29.1213 29.1213C29.6839 28.5587 30 27.7956 30 27C30 26.2044 29.6839 25.4413 29.1213 24.8787C28.5587 24.3161 27.7956 24 27 24C26.2044 24 25.4413 24.3161 24.8787 24.8787C24.3161 25.4413 24 26.2044 24 27C24 27.7956 24.3161 28.5587 24.8787 29.1213C25.4413 29.6839 26.2044 30 27 30V30Z" fill="black" fill-opacity="0.5"/>
</svg>
