<svg width="24" height="24" viewBox="0 0 24 24" fill="none" xmlns="http://www.w3.org/2000/svg">
<path d="M21.8297 11.693L2.2242 1.86328C2.14451 1.82344 2.0531 1.81406 1.96638 1.83516C1.76717 1.88437 1.64295 2.08594 1.69217 2.2875L3.71248 10.5422C3.74295 10.6664 3.83435 10.7672 3.95623 10.807L7.41795 11.9953L3.95857 13.1836C3.8367 13.2258 3.74529 13.3242 3.71717 13.4484L1.69217 21.7148C1.67107 21.8016 1.68045 21.893 1.72029 21.9703C1.8117 22.1555 2.0367 22.2305 2.2242 22.1391L21.8297 12.3656C21.9023 12.3305 21.9609 12.2695 21.9984 12.1992C22.0898 12.0117 22.0148 11.7867 21.8297 11.693ZM4.0031 19.3664L5.18201 14.5477L12.1008 12.1734C12.1547 12.1547 12.1992 12.1125 12.2179 12.0563C12.2508 11.9578 12.1992 11.8523 12.1008 11.8172L5.18201 9.44531L4.00779 4.64531L18.7265 12.0258L4.0031 19.3664V19.3664Z" fill="#999999"/>
</svg>
